# xmcd
#
# Track frame offsets: 
#        150
#        18820
#        35407
#        54290
#        69622
#        86797
#        106217
#        132210
#        141275
#        157777
#        172222
#        201892
#
# Disc length: 3034 seconds
#
# Revision: 12
# Processed by: cddbd v1.5.2PL0 Copyright (c) Steve Scherf et al.
# Submitted via: ExactAudioCopy v1.3
#
DISCID=9e0bd80c
DTITLE=Bill Withers - Lovely Days
DYEAR=1989
DGENRE=Pop
TTITLE0=Lovely Day  (7'' Sunshine Mix)
TTITLE1=Use Me
TTITLE2=Ain't No Sunshine  (7'' The Eclipse Mix)
TTITLE3=Harlem
TTITLE4=Kissing My Love
TTITLE5=Lean On Me
TTITLE6=Steppin' Right Along
TTITLE7=Grandma's Hands
TTITLE8=Lonely Town - Lonely Street
TTITLE9=Who Is He What Is He To You
TTITLE10=Lovely Day  (12'' Sunshine Mix)
TTITLE11=Ain't No Sunshine  (The Total Eclipse Mix)
EXTD=YEAR: 1989
EXTT0=
EXTT1=
EXTT2=
EXTT3=
EXTT4=
EXTT5=
EXTT6=
EXTT7=
EXTT8=
EXTT9=
EXTT10=
EXTT11=
PLAYORDER=
